#!OML:ASF H:\ManfredETheater\Project 1\Capture day 1\Session 1\subject.ASF
:FULLY-SPECIFIED
:DEGREES
94
root -8.88225 17.0018 38.3012 -168.206 19.0094 180.115
lowerback 7.75235 1.71202 2.10721
upperback -1.87882 2.82696 3.28182
thorax -6.39139 1.43117 1.87284
lowerneck -15.0942 3.84651 2.3672
upperneck 10.4625 5.69203 -6.50757
head 5.89836 2.40835 -1.90055
rclavicle -2.98177e-014 -2.06736e-014
rhumerus -33.0103 -5.41228 -79.935
rradius 36.6759
rwrist 3.81268
rhand -16.9943 -11.27
rfingers 7.12502
rthumb 9.24087 -41.0475
lclavicle -2.98177e-014 -2.06736e-014
lhumerus -31.8599 -0.309777 91.0586
lradius 35.2178
lwrist -7.04706
lhand -6.48678 0.794422
lfingers 7.12502
lthumb 19.3644 29.8503
rfemur -13.3182 -3.50298 24.8513
rtibia 29.5461
rfoot -21.548 -20.8257
rtoes -19.4148
lfemur -38.0933 0.697888 -12.3399
ltibia 53.795
lfoot -15.4767 -5.17373
ltoes 2.46285
95
root -8.89227 16.9929 38.2724 -167.978 19.1011 180.102
lowerback 7.97311 1.76496 2.2073
upperback -1.90347 2.9195 3.27376
thorax -6.54066 1.47172 1.78901
lowerneck -15.1895 3.83329 2.28527
upperneck 10.2565 5.68913 -6.5714
head 5.84899 2.40235 -1.90716
rclavicle -1.49089e-014 6.67916e-014
rhumerus -32.9634 -4.97337 -80.0769
rradius 36.962
rwrist 3.63663
rhand -16.883 -11.3054
rfingers 7.12502
rthumb 9.34827 -41.0781
lclavicle -1.49089e-014 6.67916e-014
lhumerus -31.8408 -0.489913 91.1503
lradius 35.4661
lwrist -6.89898
lhand -6.63853 0.664098
lfingers 7.12502
lthumb 19.2184 29.7345
rfemur -13.5572 -3.74372 24.757
rtibia 29.7032
rfoot -21.723 -20.5662
rtoes -19.7357
lfemur -38.6696 1.00312 -12.4273
ltibia 54.483
lfoot -15.2572 -5.54729
ltoes 2.30913
96
root -8.90303 16.983 38.2422 -167.753 19.2183 180.081
lowerback 8.19966 1.82465 2.30098
upperback -1.9209 3.0205 3.26407
thorax -6.68573 1.51632 1.70523
lowerneck -15.2805 3.81985 2.20208
upperneck 10.0347 5.68783 -6.64708
head 5.79442 2.3972 -1.91725
rclavicle -1.98785e-014 3.18055e-014
rhumerus -32.8995 -4.52472 -80.2211
rradius 37.2419
rwrist 3.49396
rhand -16.7516 -11.3948
rfingers 7.12502
rthumb 9.475 -41.1618
lclavicle -1.98785e-014 3.18055e-014
lhumerus -31.8243 -0.640559 91.2407
lradius 35.7273
lwrist -6.73359
lhand -6.80442 0.54951
lfingers 7.12502
lthumb 19.0589 29.6357
rfemur -13.8026 -3.98249 24.6473
rtibia 29.8817
rfoot -21.9153 -20.3006
rtoes -20.0703
lfemur -39.245 1.32599 -12.5276
ltibia 55.1794
lfoot -15.0567 -5.92028
ltoes 2.03567
97
root -8.9149 16.9723 38.2099 -167.543 19.3654 180.059
lowerback 8.44009 1.88834 2.40088
upperback -1.92905 3.1283 3.25489
thorax -6.82846 1.56376 1.61656
lowerneck -15.3491 3.80829 2.11371
upperneck 9.79347 5.69118 -6.73136
head 5.73042 2.39503 -1.92912
rclavicle 3.63776e-014 6.36111e-014
rhumerus -32.824 -4.05713 -80.3688
rradius 37.5127
rwrist 3.36868
rhand -16.6086 -11.5377
rfingers 7.12502
rthumb 9.61295 -41.2983
lclavicle 3.63776e-014 6.36111e-014
lhumerus -31.823 -0.751851 91.3299
lradius 36.0005
lwrist -6.53531
lhand -6.98079 0.442567
lfingers 7.12502
lthumb 18.8893 29.5454
rfemur -14.0324 -4.2435 24.5234
rtibia 30.0707
rfoot -22.1205 -20.0052
rtoes -20.4408
lfemur -39.7951 1.66503 -12.6368
ltibia 55.8776
lfoot -14.8961 -6.2815
ltoes 1.60781
98
root -8.92802 16.9611 38.1744 -167.353 19.548 180.037
lowerback 8.69299 1.96092 2.51676
upperback -1.91973 3.24943 3.24018
thorax -6.95836 1.61669 1.51028
lowerneck -15.4183 3.79656 2.03121
upperneck 9.53814 5.69424 -6.82596
head 5.66265 2.39312 -1.94525
rclavicle 3.45885e-014 -5.40694e-014
rhumerus -32.7269 -3.58467 -80.5272
rradius 37.7623
rwrist 3.22505
rhand -16.4994 -11.6815
rfingers 7.12502
rthumb 9.71837 -41.4373
lclavicle 3.45885e-014 -5.40694e-014
lhumerus -31.8258 -0.844296 91.4185
lradius 36.2944
lwrist -6.32622
lhand -7.15318 0.387716
lfingers 7.12502
lthumb 18.7235 29.5066
rfemur -14.2333 -4.52306 24.3817
rtibia 30.2611
rfoot -22.338 -19.6816
rtoes -20.8553
lfemur -40.3058 2.0178 -12.7558
ltibia 56.5718
lfoot -14.7947 -6.63011
ltoes 1.02968
99
root -8.94213 16.9495 38.1354 -167.182 19.7655 180.026
lowerback 8.96843 2.04089 2.64454
upperback -1.90357 3.38402 3.2305
thorax -7.09324 1.67566 1.39912
lowerneck -15.4714 3.78628 1.95169
upperneck 9.2752 5.70093 -6.93421
head 5.59062 2.39339 -1.96601
rclavicle -1.51076e-014 -1.43125e-014
rhumerus -32.6297 -3.09478 -80.6864
rradius 37.992
rwrist 3.05867
rhand -16.4296 -11.8173
rfingers 7.12502
rthumb 9.78567 -41.5699
lclavicle -1.51076e-014 -1.43125e-014
lhumerus -31.855 -0.906357 91.5151
lradius 36.6073
lwrist -6.10865
lhand -7.29388 0.396117
lfingers 7.12502
lthumb 18.5882 29.528
rfemur -14.3967 -4.80974 24.232
rtibia 30.44
rfoot -22.5662 -19.3399
rtoes -21.3084
lfemur -40.7736 2.38852 -12.8748
ltibia 57.2573
lfoot -14.7689 -6.98138
ltoes 0.32752
100
root -8.95672 16.9376 38.0934 -167.016 20.0076 180.024
lowerback 9.23811 2.12443 2.79212
upperback -1.87155 3.52519 3.21767
thorax -7.20591 1.73693 1.27209
lowerneck -15.524 3.77909 1.88504
upperneck 8.99925 5.70982 -7.05164
head 5.51529 2.39549 -1.99155
rclavicle 3.93594e-014 6.52014e-014
rhumerus -32.5038 -2.60237 -80.8628
rradius 38.1888
rwrist 2.8657
rhand -16.4131 -11.9192
rfingers 7.12502
rthumb 9.80158 -41.6711
lclavicle 3.93594e-014 6.52014e-014
lhumerus -31.8845 -0.956671 91.6088
lradius 36.9301
lwrist -5.87133
lhand -7.44126 0.425784
lfingers 7.12502
lthumb 18.4464 29.5712
rfemur -14.5371 -5.09315 24.0832
rtibia 30.6015
rfoot -22.7756 -19.0298
rtoes -21.9061
lfemur -41.2179 2.77529 -12.9913
ltibia 57.931
lfoot -14.8194 -7.35485
ltoes -0.434642
101
root -8.97185 16.9258 38.0475 -166.859 20.2746 180.038
lowerback 9.50918 2.20922 2.96417
upperback -1.82856 3.67171 3.20537
thorax -7.30542 1.79985 1.13031
lowerneck -15.5554 3.77622 1.82831
upperneck 8.7074 5.72284 -7.17715
head 5.43234 2.40091 -2.02115
rclavicle -1.59028e-015 2.70347e-014
rhumerus -32.3641 -2.09734 -81.0545
rradius 38.3541
rwrist 2.64621
rhand -16.4577 -11.9759
rfingers 7.12502
rthumb 9.75854 -41.7298
lclavicle -1.59028e-015 2.70347e-014
lhumerus -31.9315 -0.994498 91.704
lradius 37.2599
lwrist -5.61251
lhand -7.60722 0.456272
lfingers 7.12502
lthumb 18.2867 29.6167
rfemur -14.6397 -5.36608 23.9354
rtibia 30.7393
rfoot -22.9773 -18.7468
rtoes -22.6186
lfemur -41.6281 3.17268 -13.1021
ltibia 58.5901
lfoot -14.9475 -7.75143
ltoes -1.17697
102
root -8.98713 16.9139 37.999 -166.691 20.5356 180.064
lowerback 9.77347 2.2878 3.15539
upperback -1.78293 3.81327 3.1945
thorax -7.39613 1.85963 0.979584
lowerneck -15.5833 3.77773 1.78593
upperneck 8.40943 5.73954 -7.31073
head 5.34788 2.40893 -2.05526
rclavicle 1.78906e-014 9.06458e-014
rhumerus -32.2028 -1.58962 -81.2592
rradius 38.4824
rwrist 2.41727
rhand -16.5453 -11.961
rfingers 7.12502
rthumb 9.67406 -41.7188
lclavicle 1.78906e-014 9.06458e-014
lhumerus -31.9867 -1.02861 91.8028
lradius 37.5863
lwrist -5.34581
lhand -7.81025 0.474078
lfingers 7.12502
lthumb 18.0914 29.6527
rfemur -14.7307 -5.62295 23.7985
rtibia 30.8534
rfoot -23.1685 -18.5208
rtoes -23.4371
lfemur -42.0435 3.56825 -13.2048
ltibia 59.2339
lfoot -15.1325 -8.18413
ltoes -1.82393
103
root -9.0021 16.902 37.9477 -166.505 20.7949 180.101
lowerback 10.0245 2.36181 3.35589
upperback -1.7385 3.95102 3.18768
thorax -7.47923 1.91736 0.828307
lowerneck -15.6044 3.78375 1.75343
upperneck 8.10984 5.76079 -7.44898
head 5.2626 2.42 -2.09206
rclavicle 7.15625e-015 4.92986e-014
rhumerus -32.0238 -1.07519 -81.4737
rradius 38.5754
rwrist 2.19366
rhand -16.6638 -11.8878
rfingers 7.12502
rthumb 9.55973 -41.6509
lclavicle 7.15625e-015 4.92986e-014
lhumerus -32.0535 -1.0632 91.9095
lradius 37.908
lwrist -5.08709
lhand -8.06306 0.467134
lfingers 7.12502
lthumb 17.8482 29.6681
rfemur -14.8148 -5.84909 23.6725
rtibia 30.9433
rfoot -23.3492 -18.3623
rtoes -24.3561
lfemur -42.4688 3.96103 -13.3001
ltibia 59.8602
lfoot -15.3571 -8.63133
ltoes -2.33216
104
root -9.01648 16.8904 37.8939 -166.296 21.0502 180.147
lowerback 10.2713 2.431 3.55378
upperback -1.70643 4.08474 3.18936
thorax -7.57304 1.97326 0.687355
lowerneck -15.6048 3.79493 1.72454
upperneck 7.81264 5.78856 -7.58941
head 5.17536 2.4352 -2.12974
rclavicle -8.18993e-014 3.18055e-014
rhumerus -31.8449 -0.544788 -81.6907
rradius 38.6436
rwrist 2.00017
rhand -16.7781 -11.792
rfingers 7.12502
rthumb 9.44949 -41.5601
lclavicle -8.18993e-014 3.18055e-014
lhumerus -32.1451 -1.0912 92.029
lradius 38.2145
lwrist -4.83928
lhand -8.38574 0.413184
lfingers 7.12502
lthumb 17.5377 29.6422
rfemur -14.8996 -6.02899 23.5589
rtibia 31.0123
rfoot -23.5232 -18.2729
rtoes -25.3172
lfemur -42.9133 4.35271 -13.388
ltibia 60.4677
lfoot -15.5986 -9.07446
ltoes -2.67248
105
root -9.0301 16.8792 37.8375 -166.071 21.3036 180.187
lowerback 10.5085 2.50131 3.73688
upperback -1.67798 4.21815 3.18831
thorax -7.66508 2.02927 0.551517
lowerneck -15.6217 3.80853 1.70748
upperneck 7.53105 5.81753 -7.7275
head 5.09614 2.45115 -2.16817
rclavicle 8.74653e-015 -3.02153e-014
rhumerus -31.6463 -0.0286311 -81.9113
rradius 38.6849
rwrist 1.85954
rhand -16.8696 -11.6828
rfingers 7.12502
rthumb 9.36114 -41.455
lclavicle 8.74653e-015 -3.02153e-014
lhumerus -32.2306 -1.14102 92.1596
lradius 38.4808
lwrist -4.60456
lhand -8.78498 0.289638
lfingers 7.12502
lthumb 17.1534 29.5525
rfemur -14.9851 -6.1637 23.4393
rtibia 31.0602
rfoot -23.6944 -18.2449
rtoes -26.2783
lfemur -43.3752 4.73639 -13.486
ltibia 61.0532
lfoot -15.8388 -9.4759
ltoes -2.8484
106
root -9.0427 16.8685 37.7783 -165.827 21.5626 180.22
lowerback 10.7337 2.57344 3.89901
upperback -1.65806 4.35172 3.18799
thorax -7.7601 2.08591 0.427844
lowerneck -15.6311 3.82509 1.69852
upperneck 7.26128 5.84917 -7.86538
head 5.0199 2.46886 -2.20762
rclavicle 9.14409e-015 -1.03368e-013
rhumerus -31.4415 0.494307 -82.1379
rradius 38.7028
rwrist 1.75491
rhand -16.9519 -11.5847
rfingers 7.12502
rthumb 9.28174 -41.3604
lclavicle 9.14409e-015 -1.03368e-013
lhumerus -32.3346 -1.20442 92.3036
lradius 38.7304
lwrist -4.38331
lhand -9.24505 0.12913
lfingers 7.12502
lthumb 16.7105 29.4299
rfemur -15.0702 -6.23769 23.3126
rtibia 31.087
rfoot -23.8666 -18.2716
rtoes -27.1879
lfemur -43.8512 5.11732 -13.5933
ltibia 61.6148
lfoot -16.0674 -9.80015
ltoes -2.91116
